<svg xmlns:mydata="http://www.w3.org/2000/svg" mydata:contrastcolor="ffffff" mydata:template="InvertedHex1" mydata:presentation="2.5" mydata:layouttype="undefined" mydata:specialfontid="undefined" mydata:id1="821" mydata:id2="267" mydata:companyname="Trabajo" mydata:companytagline="" version="1.1" xmlns="http://www.w3.org/2000/svg" xmlns:xlink="http://www.w3.org/1999/xlink" viewBox="0 0 550 470"><g fill="#ffffff" fill-rule="none" stroke="none" stroke-width="1" stroke-linecap="butt" stroke-linejoin="miter" stroke-miterlimit="10" stroke-dasharray="" stroke-dashoffset="0" font-family="none" font-weight="none" font-size="none" text-anchor="none" style="mix-blend-mode: normal"><g data-paper-data="{&quot;isGlobalGroup&quot;:true,&quot;bounds&quot;:{&quot;x&quot;:64.99999999999997,&quot;y&quot;:198.94605604367277,&quot;width&quot;:420,&quot;height&quot;:72.10788791265449}}"><g data-paper-data="{&quot;isPrimaryText&quot;:true}" fill-rule="nonzero"><path d="M233.91281,213.79708c-0.47826,0.83696 -1.1558,1.47464 -2.07247,1.87319c-0.63768,0.27899 -1.31522,0.39855 -2.03261,0.39855h-10.28262v42.64497c0,0.75725 -0.11957,1.43478 -0.39855,2.03261c-0.27899,0.59783 -0.63768,1.11594 -1.11594,1.55435c-0.91667,0.7971 -1.99276,1.19565 -3.26812,1.19565c-0.91667,0 -1.71377,-0.23913 -2.47102,-0.67754c-0.83696,-0.47826 -1.47464,-1.1558 -1.87319,-2.07247c-0.27899,-0.59783 -0.39855,-1.27536 -0.39855,-2.03261v-42.64497h-10.44204c-0.75725,0 -1.43478,-0.11957 -2.03261,-0.39855c-0.59783,-0.27899 -1.11594,-0.63768 -1.55435,-1.1558c-0.7971,-0.91667 -1.19565,-1.99276 -1.19565,-3.22826c0,-0.91667 0.23913,-1.71377 0.67754,-2.47102c0.47826,-0.83696 1.1558,-1.47464 2.07247,-1.87319c0.59783,-0.27899 1.27536,-0.39855 2.03261,-0.39855h30.25003c0.71739,0 1.39493,0.11957 2.03261,0.39855c0.59783,0.27899 1.11594,0.63768 1.55435,1.11594c0.7971,0.91667 1.19565,1.99276 1.19565,3.22826c0,0.91667 -0.23913,1.75362 -0.67754,2.51087z" data-paper-data="{&quot;glyphName&quot;:&quot;T&quot;,&quot;glyphIndex&quot;:0,&quot;firstGlyphOfWord&quot;:true,&quot;word&quot;:1}"></path><path d="M249.89471,230.21739h20.72466v-14.18842h-20.72466zM279.38749,256.16306v-0.03986c0.55797,0.83696 0.83696,1.71377 0.7971,2.63044c0,0.67754 -0.15942,1.31522 -0.43841,1.9529c-0.27899,0.55797 -0.63768,1.03623 -1.07609,1.47464c-0.95652,0.87681 -2.07247,1.31522 -3.34783,1.31522c-0.75725,0 -1.51449,-0.19928 -2.19203,-0.55797c-0.67754,-0.39855 -1.27536,-0.95652 -1.71377,-1.71377l-13.78987,-21.4819h-7.73189v18.93118c0,0.75725 -0.11957,1.43478 -0.39855,2.03261c-0.27899,0.59783 -0.63768,1.11594 -1.11594,1.55435c-0.91667,0.7971 -1.99276,1.19565 -3.22826,1.19565c-0.91667,0 -1.75362,-0.19928 -2.51087,-0.63768c-0.83696,-0.51812 -1.47464,-1.19565 -1.87319,-2.11232c-0.27899,-0.59783 -0.39855,-1.27536 -0.39855,-2.03261v-47.42758c0,-1.31522 0.47826,-2.43116 1.39493,-3.34783c0.91667,-0.91667 2.07247,-1.39493 3.38768,-1.39493h30.25003c1.31522,0 2.47102,0.47826 3.38768,1.39493c0.91667,0.91667 1.39493,2.03261 1.39493,3.34783v23.71379c0,1.31522 -0.47826,2.47102 -1.39493,3.38768c-0.91667,0.91667 -2.07247,1.39493 -3.38768,1.39493h-6.45653z" data-paper-data="{&quot;glyphName&quot;:&quot;R&quot;,&quot;glyphIndex&quot;:1,&quot;word&quot;:1}"></path><path d="M299.11577,242.05435h9.68479l-4.82247,-15.14494zM308.52158,209.81157l15.06523,47.42758c0.15942,0.51812 0.23913,1.07609 0.23913,1.5942c0,0.67754 -0.15942,1.35507 -0.43841,1.9529c-0.27899,0.59783 -0.63768,1.07609 -1.1558,1.51449c-0.91667,0.7971 -2.03261,1.19565 -3.26812,1.19565c-0.99638,0 -1.87319,-0.27899 -2.67029,-0.83696c-0.83696,-0.59783 -1.43478,-1.43478 -1.75362,-2.51087v-0.03986l-2.71015,-8.48914h-15.78262l-2.75,8.52899c-0.31884,1.07609 -0.91667,1.91305 -1.75362,2.51087c-0.75725,0.55797 -1.67391,0.83696 -2.67029,0.83696c-0.91667,0 -1.75362,-0.23913 -2.55073,-0.67754c-0.83696,-0.51812 -1.43478,-1.19565 -1.87319,-2.03261c-0.27899,-0.59783 -0.43841,-1.27536 -0.43841,-1.9529c0,-0.51812 0.07971,-1.07609 0.27899,-1.5942l15.1848,-47.42758c0.31884,-1.03623 0.95652,-1.83334 1.87319,-2.39131c0.7971,-0.47826 1.67391,-0.71739 2.67029,-0.71739c0.95652,0 1.83334,0.23913 2.63044,0.71739c0.91667,0.55797 1.55435,1.35507 1.87319,2.39131z" data-paper-data="{&quot;glyphName&quot;:&quot;A&quot;,&quot;glyphIndex&quot;:2,&quot;word&quot;:1}"></path><path d="M337.29697,239.78261v14.18842h20.72466v-14.18842zM337.29697,216.06882v14.18842h13.19204v-14.18842zM362.80424,263.4964h-30.25003c-1.31522,0 -2.47102,-0.47826 -3.38768,-1.39493c-0.91667,-0.91667 -1.39493,-2.07247 -1.39493,-3.38768v-47.42758c0,-1.31522 0.47826,-2.43116 1.39493,-3.34783c0.91667,-0.91667 2.07247,-1.39493 3.38768,-1.39493h22.67756c1.31522,0 2.47102,0.47826 3.38768,1.39493c0.91667,0.91667 1.39493,2.03261 1.39493,3.34783v18.97103h2.78986c1.31522,0 2.47102,0.47826 3.38768,1.39493c0.91667,0.91667 1.39493,2.03261 1.39493,3.34783v23.71379c0,1.31522 -0.47826,2.47102 -1.39493,3.38768c-0.91667,0.91667 -2.07247,1.39493 -3.38768,1.39493z" data-paper-data="{&quot;glyphName&quot;:&quot;B&quot;,&quot;glyphIndex&quot;:3,&quot;word&quot;:1}"></path><path d="M386.7173,242.05435h9.68479l-4.82247,-15.14494zM396.12311,209.81157l15.06523,47.42758c0.15942,0.51812 0.23913,1.07609 0.23913,1.5942c0,0.67754 -0.15942,1.35507 -0.43841,1.9529c-0.27899,0.59783 -0.63768,1.07609 -1.1558,1.51449c-0.91667,0.7971 -2.03261,1.19565 -3.26812,1.19565c-0.99638,0 -1.87319,-0.27899 -2.67029,-0.83696c-0.83696,-0.59783 -1.43478,-1.43478 -1.75362,-2.51087v-0.03986l-2.71015,-8.48914h-15.78262l-2.75,8.52899c-0.31884,1.07609 -0.91667,1.91305 -1.75362,2.51087c-0.75725,0.55797 -1.67391,0.83696 -2.67029,0.83696c-0.91667,0 -1.75362,-0.23913 -2.55073,-0.67754c-0.83696,-0.51812 -1.43478,-1.19565 -1.87319,-2.03261c-0.27899,-0.59783 -0.43841,-1.27536 -0.43841,-1.9529c0,-0.51812 0.07971,-1.07609 0.27899,-1.5942l15.1848,-47.42758c0.31884,-1.03623 0.95652,-1.83334 1.87319,-2.39131c0.7971,-0.47826 1.67391,-0.71739 2.67029,-0.71739c0.95652,0 1.83334,0.23913 2.63044,0.71739c0.91667,0.55797 1.55435,1.35507 1.87319,2.39131z" data-paper-data="{&quot;glyphName&quot;:&quot;A&quot;,&quot;glyphIndex&quot;:4,&quot;word&quot;:1}"></path><path d="M434.82242,263.4964h-14.66668c-0.75725,0 -1.43478,-0.11957 -2.03261,-0.39855c-0.59783,-0.27899 -1.11594,-0.63768 -1.55435,-1.1558c-0.7971,-0.87681 -1.19565,-1.9529 -1.19565,-3.22826c0,-0.91667 0.23913,-1.71377 0.67754,-2.47102c0.47826,-0.83696 1.1558,-1.47464 2.07247,-1.87319c0.59783,-0.27899 1.27536,-0.39855 2.03261,-0.39855h9.88407v-42.68482c0,-0.71739 0.11957,-1.39493 0.39855,-1.99276c0.27899,-0.59783 0.63768,-1.11594 1.1558,-1.55435c0.91667,-0.7971 1.99276,-1.19565 3.22826,-1.19565c0.91667,0 1.71377,0.19928 2.47102,0.63768c0.83696,0.51812 1.47464,1.19565 1.87319,2.11232c0.27899,0.59783 0.39855,1.27536 0.39855,1.99276v47.42758c0,1.31522 -0.47826,2.47102 -1.39493,3.38768c-0.91667,0.91667 -2.03261,1.39493 -3.34783,1.39493z" data-paper-data="{&quot;glyphName&quot;:&quot;J&quot;,&quot;glyphIndex&quot;:5,&quot;word&quot;:1}"></path><path d="M454.71012,216.06882v37.90221h20.72466v-37.90221zM480.21739,263.4964h-30.25003c-1.31522,0 -2.47102,-0.47826 -3.38768,-1.39493c-0.91667,-0.91667 -1.39493,-2.07247 -1.39493,-3.38768v-47.42758c0,-1.31522 0.47826,-2.43116 1.39493,-3.34783c0.91667,-0.91667 2.07247,-1.39493 3.38768,-1.39493h30.25003c1.31522,0 2.47102,0.47826 3.38768,1.39493c0.91667,0.91667 1.39493,2.03261 1.39493,3.34783v47.42758c0,1.31522 -0.47826,2.47102 -1.39493,3.38768c-0.91667,0.91667 -2.07247,1.39493 -3.38768,1.39493z" data-paper-data="{&quot;glyphName&quot;:&quot;O&quot;,&quot;glyphIndex&quot;:6,&quot;lastGlyphOfWord&quot;:true,&quot;word&quot;:1}"></path></g><g data-paper-data="{&quot;isIcon&quot;:&quot;true&quot;,&quot;iconType&quot;:&quot;icon&quot;,&quot;rawIconId&quot;:&quot;4033925&quot;,&quot;selectedEffects&quot;:{&quot;container&quot;:&quot;&quot;,&quot;transformation&quot;:&quot;&quot;,&quot;pattern&quot;:&quot;&quot;},&quot;isDetailed&quot;:false,&quot;iconStyle&quot;:&quot;standalone&quot;,&quot;bounds&quot;:{&quot;x&quot;:64.99999999999997,&quot;y&quot;:198.94605604367277,&quot;width&quot;:72.19079165819767,&quot;height&quot;:72.10788791265449},&quot;fillRule&quot;:&quot;evenodd&quot;,&quot;suitableAsStandaloneIcon&quot;:true}" fill-rule="evenodd"><path d="M126.672,209.4768c-6.28752,-6.29087 -14.6752,-10.04059 -23.55591,-10.53074h-0.04808c-0.83817,0.01253 -1.52464,0.68038 -1.55467,1.52374c-0.05158,0.88985 0.62315,1.65521 1.51245,1.71562c17.72054,1.02625 31.43512,15.91959 31,33.66452c-0.435,17.74492 -14.86302,31.94822 -32.61268,32.10477c-17.74955,0.15655 -32.42578,-13.79008 -33.17376,-31.52462c-0.05446,-0.88795 -0.80382,-1.57239 -1.69305,-1.54632c-0.43014,0.01682 -0.83607,0.20351 -1.1287,0.5192c-0.2325,0.25689 -0.37754,0.5788 -0.41762,0.91944v0.44651c0.81454,16.02185 12.10685,29.5994 27.73457,33.30672c15.70492,3.72572 31.97531,-3.42085 39.85677,-17.50654c7.88135,-14.08569 5.46041,-31.69076 -5.93063,-43.12616zM101.11831,265.20057c16.33462,0.10057 29.78011,-12.82189 30.32741,-29.1477c0.54742,-16.3257 -12.00245,-30.11966 -28.30705,-31.11344c-0.89144,-0.03429 -1.6418,0.66055 -1.67611,1.55196c-0.03431,0.89141 0.66051,1.64182 1.55196,1.67611c11.91983,0.85009 21.85394,9.45351 24.39769,21.12977c2.54386,11.67626 -2.91102,23.63232 -13.39707,29.36384c-10.48593,5.73141 -23.49473,3.86737 -31.94924,-4.57822c-0.6297,-0.6078 -1.62769,-0.6078 -2.2574,0c-0.59629,0.63433 -0.59629,1.62307 0,2.2574c5.63841,5.67565 13.30948,8.86513 21.3098,8.86027zM122.07945,235.75038c0.37664,-11.08708 -7.94208,-20.55165 -18.98593,-21.60078l-0.16931,-0.04515c-0.84709,-0.04853 -1.49947,-0.76616 -1.46731,-1.61404c0.05802,-0.86108 0.76255,-1.53627 1.62533,-1.5576h0.29346c12.64592,1.32317 22.11366,12.20325 21.67685,24.91068c-0.43669,12.70755 -10.62905,22.91187 -23.33604,23.36369c-0.88084,0.01264 -1.60681,-0.68817 -1.62533,-1.56889c-0.00034,-0.88027 0.70024,-1.60083 1.58018,-1.62533c11.08956,-0.2973 20.03144,-9.1754 20.40808,-20.26259zM111.94251,245.86599c4.38409,-4.37912 5.69766,-10.96834 3.32796,-16.69377c-2.3697,-5.72554 -7.95562,-9.45916 -14.15217,-9.45916c-6.19655,0 -11.78247,3.73362 -14.15217,9.45916c-2.3697,5.72543 -1.05612,12.31465 3.32796,16.69377c5.98514,5.96087 15.66327,5.96087 21.64841,0z" data-paper-data="{&quot;isPathIcon&quot;:true}"></path></g><path d="M160.22451,271.05394v-72.10789h1.58304v72.10789z" data-paper-data="{&quot;isShapeTextSeparator&quot;:true}" fill-rule="nonzero"></path></g></g></svg>